<svg width="149" height="57" viewBox="0 0 149 57" fill="none" xmlns="http://www.w3.org/2000/svg">
<rect width="149" height="57" fill="#1B1D2C"/>
<rect width="57" height="57" rx="28.5" fill="#FF8A01"/>
<path d="M32.8359 42.0859H24.1641C24.0051 42.0859 23.875 42.216 23.875 42.375V43.5312C23.875 44.1708 24.3917 44.6875 25.0312 44.6875H31.9688C32.6083 44.6875 33.125 44.1708 33.125 43.5312V42.375C33.125 42.216 32.9949 42.0859 32.8359 42.0859ZM28.5 12.3125C21.9563 12.3125 16.6484 17.6204 16.6484 24.1641C16.6484 28.5506 19.0332 32.3807 22.5742 34.4294V38.6172C22.5742 39.2567 23.0909 39.7734 23.7305 39.7734H33.2695C33.9091 39.7734 34.4258 39.2567 34.4258 38.6172V34.4294C37.9668 32.3807 40.3516 28.5506 40.3516 24.1641C40.3516 17.6204 35.0437 12.3125 28.5 12.3125ZM33.1214 32.1783L31.8242 32.9299V37.1719H25.1758V32.9299L23.8786 32.1783C21.035 30.5343 19.25 27.5063 19.25 24.1641C19.25 19.0549 23.3908 14.9141 28.5 14.9141C33.6092 14.9141 37.75 19.0549 37.75 24.1641C37.75 27.5063 35.965 30.5343 33.1214 32.1783Z" fill="white"/>
<path d="M65.5776 37H63.2339V19.2266H65.5776V37ZM71.6567 23.792L71.73 25.4521C72.7391 24.1826 74.0575 23.5479 75.6851 23.5479C78.4764 23.5479 79.8843 25.1226 79.9087 28.272V37H77.6504V28.2598C77.6423 27.3076 77.4225 26.6037 76.9912 26.1479C76.568 25.6922 75.9048 25.4644 75.0015 25.4644C74.269 25.4644 73.6261 25.6597 73.0728 26.0503C72.5194 26.4409 72.0881 26.9536 71.7788 27.5884V37H69.5205V23.792H71.6567ZM99.2202 37H96.9619V23.792H99.2202V37ZM96.7788 20.2886C96.7788 19.9224 96.8887 19.6131 97.1084 19.3608C97.3363 19.1086 97.6699 18.9824 98.1094 18.9824C98.5488 18.9824 98.8825 19.1086 99.1104 19.3608C99.3382 19.6131 99.4521 19.9224 99.4521 20.2886C99.4521 20.6548 99.3382 20.96 99.1104 21.2041C98.8825 21.4482 98.5488 21.5703 98.1094 21.5703C97.6699 21.5703 97.3363 21.4482 97.1084 21.2041C96.8887 20.96 96.7788 20.6548 96.7788 20.2886ZM102.309 30.2861C102.309 28.2272 102.785 26.5915 103.737 25.3789C104.689 24.1582 105.95 23.5479 107.521 23.5479C109.132 23.5479 110.39 24.1175 111.293 25.2568L111.403 23.792H113.466V36.6826C113.466 38.3916 112.957 39.7384 111.94 40.7231C110.931 41.7078 109.572 42.2002 107.863 42.2002C106.911 42.2002 105.979 41.9967 105.067 41.5898C104.156 41.1829 103.46 40.6255 102.98 39.9175L104.152 38.5625C105.12 39.7588 106.304 40.3569 107.704 40.3569C108.803 40.3569 109.657 40.0477 110.268 39.4292C110.886 38.8107 111.195 37.9399 111.195 36.8169V35.6816C110.292 36.7233 109.059 37.2441 107.497 37.2441C105.95 37.2441 104.697 36.6216 103.737 35.3765C102.785 34.1313 102.309 32.4346 102.309 30.2861ZM104.579 30.5425C104.579 32.0317 104.884 33.2036 105.495 34.0581C106.105 34.9045 106.959 35.3276 108.058 35.3276C109.482 35.3276 110.528 34.6807 111.195 33.3867V27.3564C110.504 26.0951 109.466 25.4644 108.083 25.4644C106.984 25.4644 106.125 25.8916 105.507 26.7461C104.888 27.6006 104.579 28.866 104.579 30.5425ZM119.142 25.3911C120.143 24.1623 121.445 23.5479 123.048 23.5479C125.84 23.5479 127.248 25.1226 127.272 28.272V37H125.014V28.2598C125.006 27.3076 124.786 26.6037 124.354 26.1479C123.931 25.6922 123.268 25.4644 122.365 25.4644C121.632 25.4644 120.989 25.6597 120.436 26.0503C119.883 26.4409 119.451 26.9536 119.142 27.5884V37H116.884V18.25H119.142V25.3911ZM133.717 20.5938V23.792H136.183V25.5376H133.717V33.7285C133.717 34.2575 133.827 34.6562 134.047 34.9248C134.267 35.1852 134.641 35.3154 135.17 35.3154C135.43 35.3154 135.788 35.2666 136.244 35.1689V37C135.65 37.1628 135.072 37.2441 134.511 37.2441C133.502 37.2441 132.741 36.939 132.228 36.3286C131.715 35.7183 131.459 34.8516 131.459 33.7285V25.5376H129.054V23.792H131.459V20.5938H133.717Z" fill="#FF8A01"/>
<path d="M86.0244 35.0835H94.4473V37H83.6685V19.2266H86.0244V35.0835Z" fill="white"/>
</svg>
