<svg width="54" height="54" viewBox="0 0 54 54" fill="none" xmlns="http://www.w3.org/2000/svg">
<rect width="54" height="54" fill="#1B1D2C"/>
<path d="M27 47.25C36.9247 47.25 45 39.1748 45 29.25C45 21.7125 40.338 15.2527 33.75 12.5752V17.577C35.7996 18.7603 37.5021 20.4616 38.6868 22.5104C39.8715 24.5592 40.4968 26.8834 40.5 29.25C40.5 36.6953 34.4452 42.75 27 42.75C19.5548 42.75 13.5 36.6953 13.5 29.25C13.503 26.8833 14.1282 24.559 15.3129 22.5102C16.4977 20.4614 18.2003 18.7601 20.25 17.577V12.5752C13.662 15.2527 9 21.7125 9 29.25C9 39.1748 17.0753 47.25 27 47.25Z" fill="white"/>
<path d="M24.75 4.5H29.25V27H24.75V4.5Z" fill="white"/>
</svg>
