<?xml version="1.0" encoding="iso-8859-1"?>
<!-- Generator: Adobe Illustrator 22.0.1, SVG Export Plug-In . SVG Version: 6.00 Build 0)  -->
<svg xmlns="http://www.w3.org/2000/svg" xmlns:xlink="http://www.w3.org/1999/xlink" version="1.1" id="Layer_1" x="0px" y="0px" viewBox="0 0 64 64" style="enable-background:new 0 0 64 64;" xml:space="preserve" width="512" height="512">
<style type="text/css">
	.st0{fill:#52B8D9;}
	.st1{fill:#63312D;}
	.st2{fill:#82D9FF;}
	.st3{fill:#CAF4FF;}
	.st4{fill:#F8F3F3;}
	.st5{fill:#F9DD9D;}
	.st6{fill:#FFEECF;}
	.st7{fill:#F9A287;}
	.st8{fill:#FFC8BB;}
	.st9{fill:#DB785A;}
	.st10{fill:#D1D1D1;}
	.st11{fill:#BCBCBC;}
	.st12{fill:#EFC36A;}
	.st13{fill:#84DBFF;}
	.st14{fill:#E1DDDD;}
</style>
<g>
	<g>
		<path class="st7" d="M15.239,31.03c2.071,3.786,5.626,6.802,8.686,9.741c3.427,3.291,6.848,6.261,10.275,9.552    c3.427-3.291,6.848-6.261,10.275-9.552c3.06-2.939,6.616-5.955,8.686-9.741c2.112-3.862,2.174-8.274-0.15-12.071    c-2.719-4.442-6.436-5.575-9.473-5.597c-2.431-0.018-4.81,0.697-6.866,1.994l-2.473,1.549l-2.473-1.549    c-2.056-1.297-4.436-2.012-6.866-1.994c-3.037,0.023-6.753,1.156-9.473,5.597C13.065,22.756,13.127,27.168,15.239,31.03z"/>
	</g>
	<g>
		<g>
			<path class="st8" d="M25.926,40.771c-3.06-2.939-6.616-5.955-8.687-9.741c-2.112-3.862-2.174-8.274,0.15-12.071     c2.451-4.003,5.709-5.315,8.552-5.552c-0.358-0.029-0.718-0.048-1.08-0.045c-3.037,0.023-6.753,1.156-9.473,5.598     c-2.325,3.797-2.263,8.209-0.15,12.071c2.071,3.786,5.626,6.802,8.687,9.741c3.427,3.291,6.848,6.261,10.275,9.552     c0.333-0.32,0.667-0.626,1-0.941C32.108,46.462,29.019,43.742,25.926,40.771z"/>
		</g>
	</g>
	<g>
		<path class="st1" d="M34.201,50.823c-0.125,0-0.25-0.046-0.347-0.139c-1.708-1.64-3.445-3.229-5.125-4.765    c-1.687-1.542-3.431-3.137-5.15-4.788c-0.464-0.445-0.939-0.892-1.418-1.343c-2.737-2.575-5.566-5.238-7.36-8.519    c-2.259-4.131-2.2-8.713,0.163-12.572c2.929-4.784,6.998-5.814,9.895-5.836c2.485-0.002,4.958,0.698,7.137,2.071l2.206,1.382    l2.207-1.383c2.148-1.355,4.581-2.071,7.04-2.071c0.032,0,0.063,0,0.095,0c2.897,0.022,6.967,1.052,9.896,5.836    c2.363,3.859,2.423,8.441,0.163,12.572c-1.794,3.28-4.622,5.941-7.357,8.515c-0.48,0.452-0.957,0.9-1.421,1.347    c-1.716,1.647-3.457,3.238-5.14,4.778c-1.684,1.539-3.425,3.131-5.136,4.774C34.451,50.777,34.326,50.823,34.201,50.823z     M24.953,13.861c-0.029,0-0.058,0-0.086,0c-3.846,0.029-6.891,1.832-9.05,5.359c-2.17,3.545-2.221,7.762-0.138,11.57l0,0    c1.718,3.141,4.489,5.748,7.169,8.27c0.482,0.454,0.959,0.903,1.425,1.35c1.71,1.643,3.45,3.233,5.132,4.771    c1.571,1.437,3.193,2.919,4.797,4.45c1.607-1.534,3.232-3.02,4.808-4.46c1.679-1.535,3.414-3.123,5.121-4.761    c0.468-0.448,0.946-0.899,1.429-1.354c2.679-2.52,5.448-5.126,7.166-8.266c2.082-3.808,2.031-8.025-0.14-11.57    c-2.158-3.527-5.203-5.33-9.05-5.359c-0.028,0-0.058,0-0.087,0c-2.27,0-4.518,0.662-6.508,1.917l-2.474,1.55    c-0.162,0.102-0.369,0.102-0.531,0l-2.473-1.549C29.472,14.523,27.223,13.861,24.953,13.861z"/>
	</g>
	<g>
		<path class="st9" d="M58.886,18.959c-2.719-4.442-6.436-5.575-9.473-5.598H43.54c3.037,0.023,6.753,1.156,9.473,5.598    c2.325,3.797,2.263,8.209,0.15,12.071c-2.071,3.786-5.626,6.802-8.686,9.741c-3.427,3.291-6.848,6.261-10.275,9.552h5.873    c3.427-3.291,6.848-6.261,10.275-9.552c3.06-2.939,6.616-5.955,8.686-9.741C61.148,27.168,61.21,22.756,58.886,18.959z"/>
	</g>
	<g>
		<path class="st1" d="M40.074,50.823h-5.873c-0.204,0-0.388-0.124-0.464-0.313c-0.076-0.189-0.029-0.406,0.117-0.547    c1.721-1.652,3.466-3.248,5.154-4.791c1.679-1.535,3.414-3.123,5.121-4.761c0.466-0.447,0.942-0.896,1.424-1.349    c2.681-2.521,5.452-5.129,7.171-8.271c2.082-3.808,2.031-8.025-0.14-11.57c-2.158-3.527-5.203-5.33-9.05-5.359    c-0.275-0.002-0.497-0.227-0.496-0.502s0.225-0.498,0.5-0.498h5.874c2.901,0.022,6.97,1.052,9.899,5.836l0,0    c2.362,3.859,2.421,8.442,0.162,12.572c-1.794,3.281-4.624,5.943-7.36,8.519c-0.479,0.451-0.955,0.898-1.418,1.343    c-1.718,1.649-3.461,3.243-5.147,4.784c-1.681,1.537-3.419,3.126-5.128,4.768C40.327,50.773,40.203,50.823,40.074,50.823z     M35.451,49.823h4.422c1.671-1.6,3.363-3.147,5.002-4.645c1.681-1.537,3.419-3.126,5.128-4.768    c0.467-0.447,0.944-0.896,1.426-1.35c2.68-2.521,5.451-5.128,7.169-8.27c2.082-3.808,2.032-8.025-0.139-11.57l0,0    c-2.159-3.527-5.204-5.33-9.05-5.359h-1.21c1.838,0.838,3.696,2.317,5.239,4.836c2.363,3.859,2.423,8.441,0.163,12.572    c-1.795,3.282-4.625,5.945-7.362,8.52c-0.479,0.451-0.953,0.897-1.416,1.342c-1.716,1.647-3.457,3.238-5.14,4.777    C38.295,47.178,36.868,48.483,35.451,49.823z"/>
	</g>
	<g>
		<path class="st7" d="M4.544,36.446c1.523,2.785,4.139,5.004,6.39,7.166c2.521,2.421,5.038,4.606,7.559,7.027    c2.521-2.421,5.038-4.606,7.559-7.027c2.252-2.162,4.867-4.381,6.39-7.166c1.554-2.841,1.599-6.087-0.111-8.88    c-2.001-3.268-4.735-4.101-6.969-4.118c-1.788-0.013-3.539,0.513-5.051,1.467l-1.819,1.139l-1.819-1.139    c-1.512-0.954-3.263-1.48-5.051-1.467c-2.234,0.017-4.968,0.85-6.969,4.118C2.944,30.358,2.99,33.604,4.544,36.446z"/>
	</g>
	<g>
		<g>
			<path class="st8" d="M12.934,43.612c-2.251-2.162-4.867-4.381-6.39-7.166c-1.554-2.841-1.599-6.087,0.111-8.88     c1.71-2.792,3.954-3.804,5.965-4.051c-0.331-0.035-0.661-0.069-0.996-0.067c-2.234,0.017-4.968,0.85-6.969,4.118     c-1.71,2.793-1.665,6.039-0.111,8.88c1.523,2.785,4.139,5.004,6.39,7.166c2.521,2.421,5.038,4.606,7.559,7.027     c0.333-0.32,0.667-0.628,1-0.941C17.307,47.644,15.122,45.712,12.934,43.612z"/>
		</g>
	</g>
	<g>
		<path class="st1" d="M18.494,51.139c-0.125,0-0.25-0.046-0.346-0.139c-1.256-1.206-2.512-2.354-3.767-3.501    c-1.264-1.155-2.527-2.311-3.792-3.525c-0.34-0.327-0.688-0.654-1.041-0.985c-2.021-1.902-4.111-3.869-5.442-6.302l0,0    c-1.686-3.082-1.641-6.501,0.123-9.381c2.187-3.572,5.226-4.341,7.391-4.357c1.892,0.01,3.699,0.521,5.322,1.544l1.552,0.973    l1.553-0.974c1.622-1.022,3.477-1.538,5.321-1.543c2.165,0.016,5.205,0.785,7.391,4.357c1.764,2.88,1.809,6.299,0.123,9.381    c-1.33,2.433-3.42,4.399-5.441,6.301c-0.352,0.331-0.701,0.659-1.042,0.986c-1.265,1.214-2.528,2.37-3.792,3.525    c-1.255,1.147-2.51,2.295-3.767,3.501C18.743,51.092,18.619,51.139,18.494,51.139z M4.982,36.206    c1.254,2.293,3.286,4.205,5.25,6.053c0.354,0.333,0.705,0.664,1.047,0.992c1.259,1.209,2.517,2.359,3.775,3.509    c1.146,1.047,2.292,2.095,3.438,3.187c1.146-1.091,2.292-2.139,3.438-3.187c1.258-1.15,2.516-2.3,3.775-3.509    c0.343-0.329,0.694-0.66,1.049-0.993c1.964-1.848,3.995-3.759,5.25-6.052c1.509-2.76,1.473-5.814-0.099-8.379    c-1.563-2.554-3.766-3.859-6.546-3.879c-1.667,0.024-3.32,0.469-4.781,1.39l-1.82,1.141c-0.163,0.102-0.368,0.102-0.531,0    l-1.819-1.14c-1.462-0.922-3.127-1.375-4.782-1.391c-2.781,0.021-4.983,1.326-6.546,3.879C3.51,30.393,3.474,33.447,4.982,36.206    L4.982,36.206z"/>
	</g>
	<g>
		<path class="st9" d="M36.653,27.565c-2.001-3.268-4.735-4.101-6.969-4.118h-4.321c2.234,0.017,4.968,0.85,6.969,4.118    c1.71,2.793,1.665,6.039,0.111,8.88c-1.523,2.785-4.139,5.004-6.39,7.166c-2.521,2.421-5.038,4.606-7.559,7.027h4.321    c2.521-2.421,5.038-4.606,7.559-7.027c2.252-2.162,4.867-4.381,6.39-7.166C38.318,33.604,38.364,30.358,36.653,27.565z"/>
	</g>
	<g>
		<path class="st1" d="M22.814,51.139h-4.321c-0.204,0-0.388-0.124-0.464-0.313s-0.03-0.406,0.118-0.547    c1.262-1.211,2.523-2.365,3.784-3.518c1.258-1.15,2.516-2.3,3.775-3.509c0.344-0.33,0.696-0.662,1.051-0.996    c1.963-1.847,3.993-3.757,5.247-6.049c1.509-2.76,1.473-5.814-0.099-8.379c-1.563-2.554-3.766-3.859-6.546-3.879    c-0.275-0.002-0.497-0.227-0.496-0.502s0.225-0.498,0.5-0.498h4.321c2.169,0.016,5.209,0.785,7.396,4.357l0,0    c1.764,2.881,1.808,6.3,0.122,9.381c-1.329,2.432-3.419,4.398-5.44,6.3c-0.353,0.332-0.702,0.66-1.042,0.987    c-1.265,1.214-2.528,2.37-3.792,3.525c-1.255,1.147-2.51,2.295-3.767,3.501C23.067,51.089,22.943,51.139,22.814,51.139z     M19.746,50.139h2.868c1.213-1.161,2.426-2.27,3.639-3.378c1.258-1.15,2.516-2.3,3.775-3.509c0.343-0.33,0.695-0.66,1.05-0.994    c1.964-1.848,3.995-3.758,5.248-6.051c1.509-2.759,1.474-5.813-0.099-8.379l0,0c-1.563-2.554-3.765-3.859-6.546-3.879h-0.327    c1.204,0.656,2.395,1.708,3.405,3.357c1.764,2.88,1.809,6.299,0.123,9.381c-1.33,2.431-3.418,4.397-5.438,6.298    c-0.353,0.332-0.703,0.661-1.044,0.989c-1.265,1.214-2.528,2.37-3.792,3.525C21.653,48.37,20.7,49.241,19.746,50.139z"/>
	</g>
</g>
</svg>
