<svg width="40" height="40" viewBox="0 0 40 40" fill="none" xmlns="http://www.w3.org/2000/svg">
<path d="M20 25C22.7614 25 25 22.7614 25 20C25 17.2386 22.7614 15 20 15C17.2386 15 15 17.2386 15 20C15 22.7614 17.2386 25 20 25Z" stroke="#1B1D2C" stroke-width="2" stroke-linecap="round" stroke-linejoin="round"/>
<path d="M32.3333 25C32.1114 25.5027 32.0453 26.0603 32.1433 26.601C32.2413 27.1417 32.4991 27.6406 32.8833 28.0334L32.9833 28.1333C33.2932 28.4429 33.5391 28.8106 33.7068 29.2152C33.8746 29.6199 33.9609 30.0536 33.9609 30.4917C33.9609 30.9297 33.8746 31.3635 33.7068 31.7682C33.5391 32.1728 33.2932 32.5404 32.9833 32.85C32.6737 33.1599 32.3061 33.4058 31.9014 33.5735C31.4968 33.7413 31.063 33.8276 30.625 33.8276C30.1869 33.8276 29.7531 33.7413 29.3485 33.5735C28.9438 33.4058 28.5762 33.1599 28.2666 32.85L28.1666 32.75C27.7738 32.3658 27.2749 32.108 26.7343 32.01C26.1936 31.912 25.636 31.9782 25.1333 32.2C24.6403 32.4113 24.2199 32.7621 23.9238 33.2092C23.6277 33.6564 23.4688 34.1804 23.4666 34.7167V35C23.4666 35.8841 23.1154 36.7319 22.4903 37.357C21.8652 37.9822 21.0173 38.3334 20.1333 38.3334C19.2492 38.3334 18.4014 37.9822 17.7763 37.357C17.1511 36.7319 16.8 35.8841 16.8 35V34.85C16.7871 34.2984 16.6085 33.7633 16.2875 33.3145C15.9665 32.8657 15.5179 32.5238 15 32.3334C14.4973 32.1115 13.9396 32.0453 13.399 32.1433C12.8583 32.2414 12.3594 32.4991 11.9666 32.8833L11.8666 32.9834C11.557 33.2933 11.1894 33.5391 10.7848 33.7069C10.3801 33.8746 9.94634 33.961 9.50829 33.961C9.07024 33.961 8.63648 33.8746 8.23182 33.7069C7.82716 33.5391 7.45954 33.2933 7.14996 32.9834C6.84004 32.6738 6.59417 32.3061 6.42643 31.9015C6.25868 31.4968 6.17234 31.0631 6.17234 30.625C6.17234 30.187 6.25868 29.7532 6.42643 29.3486C6.59417 28.9439 6.84004 28.5763 7.14996 28.2667L7.24996 28.1667C7.63419 27.7739 7.89193 27.275 7.98997 26.7343C8.088 26.1937 8.02182 25.636 7.79996 25.1334C7.58869 24.6404 7.23788 24.22 6.79073 23.9239C6.34358 23.6277 5.8196 23.4688 5.28329 23.4667H4.99996C4.1159 23.4667 3.26806 23.1155 2.64294 22.4904C2.01782 21.8653 1.66663 21.0174 1.66663 20.1334C1.66663 19.2493 2.01782 18.4015 2.64294 17.7763C3.26806 17.1512 4.1159 16.8 4.99996 16.8H5.14996C5.70162 16.7871 6.23663 16.6085 6.68546 16.2875C7.13428 15.9665 7.47615 15.5179 7.66663 15C7.88848 14.4973 7.95466 13.9397 7.85663 13.399C7.7586 12.8584 7.50085 12.3595 7.11663 11.9667L7.01663 11.8667C6.7067 11.5571 6.46084 11.1895 6.29309 10.7848C6.12535 10.3802 6.039 9.9464 6.039 9.50835C6.039 9.0703 6.12535 8.63655 6.29309 8.23189C6.46084 7.82723 6.7067 7.4596 7.01663 7.15002C7.3262 6.8401 7.69383 6.59424 8.09849 6.42649C8.50315 6.25874 8.93691 6.1724 9.37496 6.1724C9.81301 6.1724 10.2468 6.25874 10.6514 6.42649C11.0561 6.59424 11.4237 6.8401 11.7333 7.15002L11.8333 7.25002C12.2261 7.63425 12.725 7.892 13.2656 7.99003C13.8063 8.08806 14.3639 8.02188 14.8666 7.80002H15C15.4929 7.58875 15.9133 7.23795 16.2094 6.7908C16.5056 6.34365 16.6645 5.81966 16.6666 5.28335V5.00002C16.6666 4.11597 17.0178 3.26812 17.6429 2.643C18.2681 2.01788 19.1159 1.66669 20 1.66669C20.884 1.66669 21.7319 2.01788 22.357 2.643C22.9821 3.26812 23.3333 4.11597 23.3333 5.00002V5.15002C23.3354 5.68633 23.4943 6.21031 23.7905 6.65746C24.0866 7.10461 24.507 7.45541 25 7.66669C25.5027 7.88854 26.0603 7.95473 26.6009 7.85669C27.1416 7.75866 27.6405 7.50091 28.0333 7.11669L28.1333 7.01669C28.4429 6.70677 28.8105 6.4609 29.2152 6.29315C29.6198 6.12541 30.0536 6.03906 30.4916 6.03906C30.9297 6.03906 31.3634 6.12541 31.7681 6.29315C32.1728 6.4609 32.5404 6.70677 32.85 7.01669C33.1599 7.32626 33.4057 7.69389 33.5735 8.09855C33.7412 8.50321 33.8276 8.93697 33.8276 9.37502C33.8276 9.81307 33.7412 10.2468 33.5735 10.6515C33.4057 11.0561 33.1599 11.4238 32.85 11.7334L32.75 11.8334C32.3657 12.2262 32.108 12.725 32.0099 13.2657C31.9119 13.8064 31.9781 14.364 32.2 14.8667V15C32.4112 15.493 32.762 15.9134 33.2092 16.2095C33.6563 16.5056 34.1803 16.6645 34.7166 16.6667H35C35.884 16.6667 36.7319 17.0179 37.357 17.643C37.9821 18.2681 38.3333 19.116 38.3333 20C38.3333 20.8841 37.9821 21.7319 37.357 22.357C36.7319 22.9822 35.884 23.3334 35 23.3334H34.85C34.3136 23.3355 33.7897 23.4944 33.3425 23.7905C32.8954 24.0867 32.5446 24.5071 32.3333 25V25Z" stroke="#1B1D2C" stroke-width="2" stroke-linecap="round" stroke-linejoin="round"/>
</svg>
