<svg width="40" height="40" viewBox="0 0 40 40" fill="none" xmlns="http://www.w3.org/2000/svg">
<path d="M33.75 4.72626L32.265 5.03876L12.265 8.78876L11.25 8.94501V25.7038C10.4949 25.2491 9.63138 25.0061 8.75 25C6 25 3.75 27.25 3.75 30C3.75 32.75 6 35 8.75 35C11.5 35 13.75 32.75 13.75 30V16.015L31.25 12.735V21.9525C30.4948 21.4983 29.6313 21.2557 28.75 21.25C26 21.25 23.75 23.5 23.75 26.25C23.75 29 26 31.25 28.75 31.25C31.5 31.25 33.75 29 33.75 26.25V4.72626ZM31.25 7.73376V10.2338L13.75 13.5163V11.0163L31.25 7.73376ZM28.75 23.75C30.1462 23.75 31.25 24.8538 31.25 26.25C31.25 27.6463 30.1462 28.75 28.75 28.75C27.3538 28.75 26.25 27.6463 26.25 26.25C26.25 24.8538 27.3538 23.75 28.75 23.75ZM8.75 27.5C10.1462 27.5 11.25 28.6038 11.25 30C11.25 31.3963 10.1462 32.5 8.75 32.5C7.35375 32.5 6.25 31.3963 6.25 30C6.25 28.6038 7.35375 27.5 8.75 27.5Z" fill="#1B1D2C"/>
</svg>
