<svg width="40" height="40" viewBox="0 0 40 40" fill="none" xmlns="http://www.w3.org/2000/svg">
<path d="M18.9634 24.1667H31.6667C32.1087 24.1667 32.5327 23.9911 32.8452 23.6785C33.1578 23.366 33.3334 22.942 33.3334 22.5V9.16669C33.3334 8.72466 33.1578 8.30074 32.8452 7.98818C32.5327 7.67562 32.1087 7.50002 31.6667 7.50002H8.33337C7.89135 7.50002 7.46742 7.67562 7.15486 7.98818C6.8423 8.30074 6.66671 8.72466 6.66671 9.16669V22.5C6.66671 22.942 6.8423 23.366 7.15486 23.6785C7.46742 23.9911 7.89135 24.1667 8.33337 24.1667C8.7754 24.1667 9.19932 24.3423 9.51189 24.6548C9.82445 24.9674 10 25.3913 10 25.8334V30.855L18.9634 24.1667ZM8.33337 4.16669H31.6667C32.9928 4.16669 34.2646 4.69347 35.2022 5.63115C36.1399 6.56884 36.6667 7.8406 36.6667 9.16669V22.5C36.6667 23.8261 36.1399 25.0979 35.2022 26.0356C34.2646 26.9732 32.9928 27.5 31.6667 27.5H20.07L9.33004 35.5134C9.08219 35.6983 8.78777 35.8106 8.47973 35.8378C8.17169 35.8649 7.86216 35.8058 7.58578 35.6671C7.3094 35.5284 7.07706 35.3155 6.91474 35.0523C6.75243 34.7891 6.66655 34.4859 6.66671 34.1767V27.5C5.78265 27.5 4.93481 27.1488 4.30968 26.5237C3.68456 25.8986 3.33337 25.0507 3.33337 24.1667V9.16669C3.33337 7.8406 3.86016 6.56884 4.79784 5.63115C5.73552 4.69347 7.00729 4.16669 8.33337 4.16669Z" fill="#1B1D2C"/>
</svg>
